HIERARCHY
ROOT Hips
{
    OFFSET 0.000000 0.000000 0.000000
    CHANNELS 6 Xposition Yposition Zposition Zrotation Xrotation Yrotation
    JOINT Spine
    {
        OFFSET -0.000000 6.993131 0.000000
        CHANNELS 3 Zrotation Xrotation Yrotation
        JOINT Spine1
        {
            OFFSET -0.000000 20.649729 0.000000
            CHANNELS 3 Zrotation Xrotation Yrotation
            JOINT Neck
            {
                OFFSET -0.000000 20.564924 1.869539
                CHANNELS 3 Zrotation Xrotation Yrotation
                JOINT Head
                {
                    OFFSET -0.000000 11.939490 -1.705642
                    CHANNELS 3 Zrotation Xrotation Yrotation
                    End Site
                    {
                        OFFSET -0.000000 21.320518 0.000000
                    }
                }
            }
            JOINT LeftShoulder
            {
                OFFSET 3.446977 19.850397 -0.038759
                CHANNELS 3 Zrotation Xrotation Yrotation
                JOINT LeftArm
                {
                    OFFSET 7.083611 0.000000 0.000000
                    CHANNELS 3 Zrotation Xrotation Yrotation
                    JOINT LeftForeArm
                    {
                        OFFSET 32.044487 0.000000 0.000000
                        CHANNELS 3 Zrotation Xrotation Yrotation
                        JOINT LeftHand
                        {
                            OFFSET 22.068741 0.000000 0.000000
                            CHANNELS 3 Zrotation Xrotation Yrotation
                            End Site
                            {
                                OFFSET 12.792312 0.000000 0.000000
                            }
                        }
                    }
                }
            }
            JOINT RightShoulder
            {
                OFFSET -3.365844 19.850397 -0.038759
                CHANNELS 3 Zrotation Xrotation Yrotation
                JOINT RightArm
                {
                    OFFSET -7.083611 0.000000 0.000000
                    CHANNELS 3 Zrotation Xrotation Yrotation
                    JOINT RightForeArm
                    {
                        OFFSET -32.044487 0.000000 0.000000
                        CHANNELS 3 Zrotation Xrotation Yrotation
                        JOINT RightHand
                        {
                            OFFSET -22.068741 0.000000 0.000000
                            CHANNELS 3 Zrotation Xrotation Yrotation
                            End Site
                            {
                                OFFSET -12.792312 0.000000 0.000000
                            }
                        }
                    }
                }
            }
        }
    }
    JOINT LeftUpLeg
    {
        OFFSET 8.528208 0.000000 0.000000
        CHANNELS 3 Zrotation Xrotation Yrotation
        JOINT LeftLeg
        {
            OFFSET -0.000000 -31.874865 0.000000
            CHANNELS 3 Zrotation Xrotation Yrotation
            JOINT LeftFoot
            {
                OFFSET -0.000000 -38.221939 0.000000
                CHANNELS 3 Zrotation Xrotation Yrotation
                JOINT LeftToeBase
                {
                    OFFSET -0.000000 -5.543335 12.792312
                    CHANNELS 3 Zrotation Xrotation Yrotation
                    End Site
                    {
                        OFFSET -0.000000 0.000000 3.411283
                    }
                }
            }
        }
    }
    JOINT RightUpLeg
    {
        OFFSET -8.528208 0.000000 0.000000
        CHANNELS 3 Zrotation Xrotation Yrotation
        JOINT RightLeg
        {
            OFFSET -0.000000 -31.874865 0.000000
            CHANNELS 3 Zrotation Xrotation Yrotation
            JOINT RightFoot
            {
                OFFSET -0.000000 -38.221939 0.000000
                CHANNELS 3 Zrotation Xrotation Yrotation
                JOINT RightToeBase
                {
                    OFFSET -0.000000 -5.543335 12.792312
                    CHANNELS 3 Zrotation Xrotation Yrotation
                    End Site
                    {
                        OFFSET -0.000000 0.000000 3.411283
                    }
                }
            }
        }
    }
}
MOTION
Frames:    5
Frame Time:    0.008333
31.047512    75.355545    24.979519    0.324507    0.435190    89.540390    -1.171294    -7.207188    0.079799    -4.371124    1.471020    0.209849    8.555627    10.521720    5.908323    -3.496178    0.773059    5.216145    14.219851    2.333347    -4.210223    -38.080307    -5.736527    -21.568970    87.037498    -42.722858    -23.185562    40.730453    -15.356566    24.318741    12.638543    9.461252    -6.194612    46.313622    56.919662    8.992023    -3.067381    -10.003464    33.587719    1.639036    -9.143952    -3.760424    -1.419532    2.354518    0.353536    1.944708    4.614516    2.670026    0.852048    -12.369552    2.514613    0.000000    0.000000    0.000000    -12.297863    5.628084    -1.328966    12.152181    -1.268251    -1.292195    -4.866579    -4.155560    -9.261495    0.000000    0.000000    0.000000    
31.065664    75.352943    24.980742    0.312328    0.433546    89.465347    -1.008708    -7.189209    0.058992    -4.590110    1.414100    0.179359    8.506014    10.550167    5.952282    -3.386656    0.750503    5.281048    14.252962    2.445719    -3.965471    -38.098583    -5.557828    -21.202232    86.420776    -42.666794    -22.828856    41.186314    -15.583879    24.788303    12.686205    9.514980    -6.093652    46.411995    56.881855    8.933408    -3.052464    -10.049887    33.592506    1.523941    -9.191807    -3.815192    -1.426063    2.328154    0.663473    1.972980    4.670580    2.388167    0.693840    -12.360964    2.558240    0.000000    0.000000    0.000000    -12.312913    5.605961    -1.300873    12.174188    -1.256184    -1.235980    -4.881815    -4.160735    -9.279284    0.000000    0.000000    0.000000    
31.154581    75.363388    25.087234    0.479935    0.198413    89.765900    -0.935093    -7.147379    -0.143477    -4.515688    1.536694    -0.024399    8.470037    10.577699    5.980924    -3.290654    0.726175    5.327293    14.248383    2.538512    -3.775095    -38.094528    -5.350329    -20.857031    85.878441    -42.557617    -22.418486    41.538353    -15.752431    25.316668    12.689308    9.522039    -6.036625    46.555397    56.832630    8.853082    -3.003605    -10.041207    33.550606    1.680578    -9.202792    -3.732195    -1.001981    2.519299    0.585283    1.823652    4.708358    2.153907    0.748848    -12.508505    2.578117    0.000000    0.000000    0.000000    -11.838408    6.103744    -1.418287    11.951345    -1.599667    -1.491158    -4.716675    -4.004289    -9.138484    0.000000    0.000000    0.000000    
31.169144    75.359367    25.085630    0.459120    0.205179    89.681343    -0.802651    -7.135125    -0.129164    -4.710635    1.473576    -0.018903    8.442839    10.616628    5.993566    -3.173530    0.686277    5.359782    14.295699    2.630316    -3.583502    -38.134064    -5.104385    -20.589064    85.503609    -42.294613    -21.902264    41.466915    -15.920411    25.673290    12.702061    9.528036    -5.961436    46.767227    56.769840    8.699684    -2.970461    -10.055762    33.528839    1.665840    -9.227756    -3.757482    -1.022274    2.521290    0.602641    1.835849    4.708757    2.195097    0.896512    -12.593385    2.597281    0.000000    0.000000    0.000000    -11.860952    6.069851    -1.400260    11.959328    -1.590037    -1.438086    -4.749088    -4.019825    -9.119566    0.000000    0.000000    0.000000    
31.184101    75.355553    25.083138    0.450235    0.201783    89.611000    -0.630335    -7.111890    -0.135064    -4.946265    1.412673    -0.035392    8.365180    10.594468    6.020942    -2.972403    0.751300    5.419800    14.310513    2.722499    -3.381025    -38.098240    -4.316421    -20.343346    85.945839    -41.813679    -20.578367    41.858212    -16.180708    25.996023    12.746815    9.605888    -5.834283    46.877937    56.697994    8.636672    -2.930706    -10.082448    33.499935    1.644905    -9.266609    -3.769377    -1.032937    2.526884    0.608526    1.851441    4.718450    2.203683    0.920703    -12.616934    2.646600    0.000000    0.000000    0.000000    -11.880136    6.038038    -1.384807    11.986073    -1.558638    -1.389526    -4.744883    -4.038173    -9.124861    0.000000    0.000000    0.000000    
